<?xml version="1.0" encoding="UTF-8"?>
<!-- Created with Inkscape (http://www.inkscape.org/) -->
<svg width="207.4mm" height="219.67mm" version="1.1" viewBox="0 0 207.4 219.67" xmlns="http://www.w3.org/2000/svg" xmlns:cc="http://creativecommons.org/ns#" xmlns:dc="http://purl.org/dc/elements/1.1/" xmlns:rdf="http://www.w3.org/1999/02/22-rdf-syntax-ns#">
 <metadata>
  <rdf:RDF>
   <cc:Work rdf:about="">
    <dc:format>image/svg+xml</dc:format>
    <dc:type rdf:resource="http://purl.org/dc/dcmitype/StillImage"/>
    <dc:title/>
   </cc:Work>
  </rdf:RDF>
 </metadata>
 <g transform="translate(-1.5119 -34.861)">
  <path d="m105.5 202.54a51.996 51.996 0 0 1-51.996 51.996 51.996 51.996 0 0 1-51.996-51.996 51.996 51.996 0 0 1 51.996-51.996 51.996 51.996 0 0 1 51.996 51.996zm103.41-53.165a51.996 51.996 0 0 1-51.996 51.996 51.996 51.996 0 0 1-51.996-51.996 51.996 51.996 0 0 1 51.996-51.996 51.996 51.996 0 0 1 51.996 51.996zm-103.41-62.513a51.996 51.996 0 0 1-51.996 51.996 51.996 51.996 0 0 1-51.996-51.996 51.996 51.996 0 0 1 51.996-51.996 51.996 51.996 0 0 1 51.996 51.996z" fill="#eaaa00" stroke-width=".40896"/>
 </g>
</svg>
